<?xml version="1.0" standalone="no"?>
<!DOCTYPE svg PUBLIC "-//W3C//DTD SVG 1.1//EN" "http://www.w3.org/Graphics/SVG/1.1/DTD/svg11.dtd">
<svg version="1.1" id="Layer_1" xmlns="http://www.w3.org/2000/svg" xmlns:xlink="http://www.w3.org/1999/xlink" x="0px" y="0px" width="792" height="612" viewBox="0 0 792 612" enable-background="new 0 0 792 612" xml:space="preserve">
<g>
	
		<text transform="matrix(1 0 0 1 932.7051 357.5352)" fill="#EC008C" font-family="'KGSatisfiedScript'" font-size="62" letter-spacing="1">A Mexican must</text>
	<g>
		<text transform="matrix(0.882 0 0 1 827.3398 425.4609)" fill="#F7941E" font-family="'BebasNeue'" font-size="48">Doble Cheese</text>
		
			<text transform="matrix(1 0 0 1 1025.8594 425.793)" fill="#00A79D" font-family="'Chalkduster'" font-size="48" letter-spacing="1">Chilakil</text>
		
			<text transform="matrix(1 0 0 1 830.6484 477.8145)" fill="#EC008C" font-family="'KGSatisfiedScript'" font-size="60" letter-spacing="1">Guacamole</text>
		
			<text transform="matrix(1 0 0 1 1120.1836 477.2607)" fill="#F7941E" font-family="'Couture-Bold'" font-size="60" letter-spacing="1">Pambazo</text>
		
			<text transform="matrix(1 0 0 1 1263.8574 426.2402)" fill="#EC008C" font-family="'KGSatisfiedScript'" font-size="48" letter-spacing="1">Ahogada</text>
	</g>
	<g>
		
			<text transform="matrix(0.882 0 0 1 993.4727 287.0645)" fill="#00A79D" font-family="'BebasNeue'" font-size="132" letter-spacing="2.267">tortas</text>
		<g>
			<path fill="#F7941E" d="M830.469,272.493c0-32.82,26.606-59.428,59.428-59.428c32.835,0,59.434,26.607,59.434,59.428"/>
			<path fill="#FFFFFF" d="M861.629,220.345c-3.362,4.516,0,22.542,0,22.542s13.345-27.537,21.061-29.377     C890.406,211.663,864.931,215.9,861.629,220.345z"/>
			<path fill="#FFFFFF" d="M911.071,216.95c-7.322-0.151-18.879,5.134-21.175,28.7c0,0,21.422-20.415,39.622-17.443     C929.519,228.207,916.474,217.058,911.071,216.95z"/>
		</g>
	</g>
</g>
<g>
	<g opacity="0.9">
		<defs>
			<path id="SVGID_1_" opacity="0.9" d="M609.881,307.402c0,121.958-98.879,220.821-220.828,220.821     c-121.959,0-220.821-98.863-220.821-220.821c0-121.957,98.862-220.826,220.821-220.826     C511.002,86.577,609.881,185.446,609.881,307.402z"/>
		</defs>
		<clipPath id="SVGID_2_">
			<use xlink:href="#SVGID_1_" overflow="visible"/>
		</clipPath>
		<g clip-path="url(#SVGID_2_)">
			<defs>
				<rect id="SVGID_3_" x="391.966" y="80.481" width="237.165" height="222.232"/>
			</defs>
			<clipPath id="SVGID_4_">
				<use xlink:href="#SVGID_3_" overflow="visible"/>
			</clipPath>
			
				<rect x="391.966" y="80.481" clip-path="url(#SVGID_4_)" fill-rule="evenodd" clip-rule="evenodd" fill="#F7941E" width="237.165" height="222.232"/>
			<path clip-path="url(#SVGID_4_)" fill-rule="evenodd" clip-rule="evenodd" fill="#FFFFFF" d="M511.723,111.983     c8.562,11.54,14.897,20.108,21.331,28.798c10.319-1.628,20.771-3.271,31.359-4.944c6.722,13.059-1.917,23.614-1.495,34.752     c8.438,6.327,16.946,12.69,25.834,19.355c-5.062,12.45-16.168,15.503-25.688,21.988c1.428,10.431,2.95,21.414,4.462,32.442     c-13.064,6.616-23.632-1.654-34.315-1.765c-6.531,8.903-12.838,17.5-20.987,28.594c-8.129-10.583-14.898-19.37-21.746-28.262     c-10.257,1.496-20.714,3.013-34.173,4.979c1.438-12.68,2.602-23.037,3.96-35.122c-7.517-5.521-16.535-12.132-27.935-20.497     c10.367-8.004,19.122-14.777,28.32-21.881c-1.522-9.906-3.125-20.376-5.184-33.894c13.258,1.504,24.222,2.739,35.484,4.017     C497.009,132.215,503.236,123.663,511.723,111.983z M519.083,198.149c-1.112,26.337,11.115,38.711,37.576,38.024     C555.796,209.758,546.381,200.24,519.083,198.149z M505.723,196.911c-30.401,5.07-38.877,14.164-38.293,39.863     C494.017,235.697,504.049,225.662,505.723,196.911z M466.276,146.56c3.346,29.251,13.105,38.566,38.93,38.43     C504.886,159.214,494.575,148.657,466.276,146.56z M517.819,185.725c28.667-1.546,41.395-15.54,37.374-39.636     C527.975,150.118,520.468,157.802,517.819,185.725z M483.603,191.938c-6.922-4.94-11.974-8.552-17.965-12.837     c-6.246,3.937-12.321,7.767-20.943,13.196c9.449,5.324,15.766,8.874,21.792,12.264     C472.571,200.072,477.144,196.701,483.603,191.938z M540.634,191.831c19.586,14.921,21.889,14.739,35.027-1.979     c-5.923-3.582-11.701-7.082-17.864-10.805C552.061,183.322,547.146,186.987,540.634,191.831z M499.507,236.953     c3.856,8.387,5.353,16.093,14.75,19.118c3.492-6.427,6.731-12.385,10.072-18.528c-4.161-5.736-7.696-10.62-12.237-16.874     C507.394,226.752,503.668,231.559,499.507,236.953z M511.918,163.731c4.577-6.711,8.477-12.427,12.832-18.801     c-4.492-6.427-8.255-11.79-13.674-19.547c-4.995,8.742-8.573,14.972-11.892,20.74     C503.615,152.244,506.914,156.814,511.918,163.731z"/>
			<path clip-path="url(#SVGID_4_)" fill-rule="evenodd" clip-rule="evenodd" fill="#FFFFFF" d="M393.143,0.869     c8.549,11.542,14.885,20.111,21.329,28.795c10.31-1.623,20.75-3.271,31.338-4.941c6.743,13.06-1.916,23.611-1.485,34.752     c8.45,6.325,16.948,12.694,25.845,19.357c-5.083,12.445-16.167,15.496-25.696,21.986c1.438,10.426,2.949,21.411,4.472,32.438     c-13.064,6.619-23.642-1.646-34.326-1.754c-6.531,8.9-12.837,17.495-20.986,28.589c-8.14-10.581-14.899-19.37-21.748-28.265     c-10.255,1.499-20.712,3.016-34.172,4.981c1.428-12.678,2.603-23.035,3.973-35.125c-7.529-5.521-16.537-12.132-27.947-20.49     c10.366-8.015,19.132-14.785,28.331-21.891c-1.522-9.901-3.124-20.374-5.195-33.889c13.267,1.501,24.223,2.737,35.485,4.017     C378.407,21.103,384.644,12.546,393.143,0.869z M400.49,87.032c-1.111,26.339,11.114,38.717,37.577,38.024     C437.202,98.646,427.789,89.123,400.49,87.032z M387.141,85.794c-30.422,5.076-38.887,14.163-38.303,39.863     C375.424,124.582,385.466,114.544,387.141,85.794z M347.694,35.443c3.335,29.256,13.096,38.567,38.93,38.43     C386.293,48.099,375.983,37.544,347.694,35.443z M399.225,74.607c28.68-1.543,41.396-15.538,37.389-39.634     C409.383,39.007,401.875,46.688,399.225,74.607z M365.01,80.827c-6.921-4.947-11.974-8.555-17.964-12.838     c-6.247,3.933-12.316,7.762-20.934,13.191c9.449,5.326,15.766,8.874,21.794,12.267C353.979,88.96,358.552,85.589,365.01,80.827z      M422.052,80.713c19.575,14.919,21.888,14.745,35.021-1.981c-5.915-3.577-11.706-7.08-17.858-10.802     C433.478,72.205,428.553,75.875,422.052,80.713z M380.903,125.838c3.868,8.384,5.373,16.097,14.771,19.113     c3.482-6.422,6.722-12.38,10.062-18.525c-4.155-5.737-7.695-10.617-12.231-16.867     C388.801,115.635,385.075,120.441,380.903,125.838z M393.326,52.616c4.587-6.711,8.481-12.427,12.832-18.799     c-4.493-6.43-8.245-11.797-13.675-19.547c-5.006,8.74-8.572,14.967-11.891,20.743C385.022,41.132,388.331,45.695,393.326,52.616z     "/>
			<path clip-path="url(#SVGID_4_)" fill-rule="evenodd" clip-rule="evenodd" fill="#FFFFFF" d="M393.143,223.103     c8.549,11.54,14.885,20.104,21.329,28.795c10.31-1.628,20.75-3.276,31.338-4.946c6.743,13.064-1.916,23.616-1.485,34.752     c8.45,6.321,16.948,12.696,25.845,19.355c-5.083,12.453-16.167,15.497-25.696,21.988c1.438,10.431,2.949,21.413,4.472,32.439     c-13.064,6.622-23.642-1.648-34.326-1.759c-6.531,8.902-12.837,17.5-20.986,28.594c-8.14-10.578-14.899-19.364-21.748-28.268     c-10.255,1.496-20.712,3.019-34.172,4.978c1.428-12.668,2.603-23.025,3.973-35.116c-7.529-5.521-16.537-12.137-27.947-20.497     c10.366-8.008,19.132-14.776,28.331-21.888c-1.522-9.899-3.124-20.372-5.195-33.889c13.267,1.506,24.223,2.74,35.485,4.015     C378.407,243.332,384.644,234.78,393.143,223.103z M400.49,309.267c-1.111,26.34,11.114,38.709,37.577,38.019     C437.202,320.877,427.789,311.353,400.49,309.267z M387.141,308.028c-30.422,5.073-38.887,14.166-38.303,39.862     C375.424,346.816,385.466,336.775,387.141,308.028z M347.694,257.683c3.335,29.248,13.096,38.551,38.93,38.425     C386.293,270.326,375.983,259.774,347.694,257.683z M399.225,296.834c28.68-1.538,41.396-15.535,37.389-39.636     C409.383,261.233,401.875,268.914,399.225,296.834z M365.01,303.05c-6.921-4.941-11.974-8.549-17.964-12.832     c-6.247,3.935-12.316,7.765-20.934,13.19c9.449,5.326,15.766,8.882,21.794,12.265C353.979,311.194,358.552,307.818,365.01,303.05     z M422.052,302.945c19.575,14.919,21.888,14.739,35.021-1.981c-5.915-3.576-11.706-7.08-17.858-10.804     C433.478,294.442,428.553,298.099,422.052,302.945z M380.903,348.07c3.868,8.382,5.373,16.099,14.771,19.112     c3.482-6.416,6.722-12.38,10.062-18.527c-4.155-5.737-7.695-10.615-12.231-16.862     C388.801,337.866,385.075,342.677,380.903,348.07z M393.326,274.846c4.587-6.717,8.481-12.433,12.832-18.802     c-4.493-6.427-8.245-11.79-13.675-19.544c-5.006,8.74-8.572,14.972-11.891,20.74     C385.022,263.361,388.331,267.929,393.326,274.846z"/>
			<path clip-path="url(#SVGID_4_)" fill-rule="evenodd" clip-rule="evenodd" fill="#FFFFFF" d="M630.314,223.096     c8.557,11.547,14.899,20.111,21.331,28.798c10.33-1.623,20.761-3.271,31.35-4.941c6.743,13.064-1.907,23.616-1.485,34.752     c8.438,6.321,16.947,12.696,25.839,19.355c-5.079,12.447-16.173,15.497-25.702,21.988c1.438,10.431,2.96,21.413,4.473,32.439     c-13.064,6.622-23.633-1.654-34.316-1.759c-6.531,8.902-12.838,17.5-20.986,28.594c-8.14-10.578-14.899-19.364-21.746-28.268     c-10.269,1.496-20.714,3.019-34.174,4.978c1.428-12.668,2.593-23.025,3.961-35.116c-7.518-5.521-16.535-12.137-27.936-20.497     c10.368-8.008,19.123-14.776,28.32-21.888c-1.521-9.904-3.123-20.372-5.194-33.889c13.276,1.506,24.223,2.74,35.485,4.015     C615.603,243.332,621.828,234.778,630.314,223.096z M637.675,309.267c-1.111,26.329,11.115,38.709,37.576,38.019     C674.376,320.877,664.963,311.353,637.675,309.267z M624.314,308.023c-30.399,5.078-38.877,14.16-38.293,39.867     C612.61,346.816,622.641,336.775,624.314,308.023z M584.879,257.677c3.335,29.254,13.092,38.557,38.92,38.431     C623.478,270.326,613.158,259.774,584.879,257.677z M636.421,296.834c28.658-1.543,41.375-15.535,37.366-39.636     C646.557,261.233,639.062,268.914,636.421,296.834z M602.194,303.05c-6.921-4.941-11.962-8.549-17.962-12.832     c-6.249,3.935-12.317,7.765-20.957,13.19c9.478,5.326,15.788,8.871,21.804,12.265     C591.164,311.194,595.727,307.818,602.194,303.05z M659.237,302.945c19.574,14.919,21.877,14.739,35.016-1.981     c-5.911-3.576-11.711-7.08-17.863-10.804C670.652,294.432,665.732,298.099,659.237,302.945z M618.088,348.07     c3.867,8.382,5.363,16.099,14.762,19.112c3.492-6.427,6.732-12.385,10.073-18.527c-4.168-5.737-7.698-10.615-12.244-16.873     C625.985,337.86,622.255,342.677,618.088,348.07z M630.51,274.846c4.578-6.717,8.477-12.433,12.823-18.802     c-4.483-6.427-8.245-11.795-13.655-19.546c-5.025,8.742-8.581,14.969-11.901,20.743     C622.209,263.361,625.506,267.929,630.51,274.846z"/>
			<path clip-path="url(#SVGID_4_)" fill-rule="evenodd" clip-rule="evenodd" fill="#FFFFFF" d="M630.314,0.869     c8.557,11.542,14.899,20.111,21.331,28.795c10.33-1.623,20.761-3.271,31.35-4.941c6.743,13.06-1.907,23.611-1.485,34.752     c8.438,6.325,16.947,12.694,25.839,19.357c-5.079,12.445-16.173,15.496-25.702,21.986c1.438,10.426,2.96,21.411,4.473,32.438     c-13.064,6.619-23.633-1.646-34.316-1.754c-6.531,8.9-12.838,17.495-20.986,28.589c-8.14-10.581-14.899-19.37-21.746-28.265     c-10.269,1.499-20.714,3.016-34.174,4.981c1.428-12.678,2.593-23.035,3.961-35.125c-7.518-5.521-16.535-12.132-27.936-20.49     c10.368-8.015,19.123-14.785,28.32-21.891c-1.521-9.901-3.123-20.374-5.194-33.889c13.276,1.501,24.223,2.737,35.485,4.017     C615.603,21.103,621.828,12.546,630.314,0.869z M637.675,87.032c-1.111,26.339,11.115,38.717,37.576,38.024     C674.376,98.646,664.963,89.123,637.675,87.032z M624.314,85.794c-30.399,5.076-38.877,14.163-38.293,39.863     C612.61,124.582,622.641,114.544,624.314,85.794z M584.879,35.443c3.335,29.256,13.092,38.567,38.92,38.43     C623.478,48.099,613.158,37.544,584.879,35.443z M636.421,74.607c28.658-1.543,41.375-15.538,37.366-39.634     C646.557,39.007,639.062,46.688,636.421,74.607z M602.194,80.827c-6.921-4.947-11.962-8.555-17.962-12.838     c-6.249,3.933-12.317,7.762-20.957,13.191c9.478,5.326,15.788,8.874,21.804,12.267C591.164,88.96,595.727,85.589,602.194,80.827z      M659.237,80.713c19.574,14.919,21.877,14.745,35.016-1.981c-5.911-3.577-11.711-7.08-17.863-10.802     C670.652,72.205,665.732,75.875,659.237,80.713z M618.088,125.838c3.867,8.384,5.363,16.097,14.762,19.113     c3.492-6.422,6.732-12.38,10.073-18.525c-4.168-5.737-7.698-10.617-12.244-16.867     C625.985,115.635,622.255,120.441,618.088,125.838z M630.51,52.616c4.578-6.711,8.477-12.427,12.823-18.799     c-4.483-6.43-8.245-11.797-13.655-19.547c-5.025,8.74-8.581,14.967-11.901,20.743C622.209,41.132,625.506,45.695,630.51,52.616z"/>
		</g>
		<path clip-path="url(#SVGID_2_)" fill-rule="evenodd" clip-rule="evenodd" fill="#FFFFFF" d="M486.816,123.547    c0,2.571-2.088,4.657-4.658,4.657c-2.574,0-4.662-2.086-4.662-4.657s2.088-4.654,4.662-4.654    C484.729,118.893,486.816,120.977,486.816,123.547z"/>
		<path clip-path="url(#SVGID_2_)" fill-rule="evenodd" clip-rule="evenodd" fill="#FFFFFF" d="M447.902,165.111    c0,2.571-2.093,4.657-4.667,4.657c-2.562,0-4.647-2.086-4.647-4.657s2.086-4.659,4.647-4.659    C445.81,160.452,447.902,162.541,447.902,165.111z"/>
		<path clip-path="url(#SVGID_2_)" fill-rule="evenodd" clip-rule="evenodd" fill="#FFFFFF" d="M447.902,222.68    c0,2.573-2.093,4.662-4.667,4.662c-2.562,0-4.647-2.089-4.647-4.662c0-2.566,2.086-4.654,4.647-4.654    C445.81,218.025,447.902,220.114,447.902,222.68z"/>
		<path clip-path="url(#SVGID_2_)" fill-rule="evenodd" clip-rule="evenodd" fill="#FFFFFF" d="M486.816,255.101    c0,2.571-2.088,4.657-4.658,4.657c-2.574,0-4.662-2.086-4.662-4.657s2.088-4.657,4.662-4.657    C484.729,250.444,486.816,252.53,486.816,255.101z"/>
		<path clip-path="url(#SVGID_2_)" fill-rule="evenodd" clip-rule="evenodd" fill="#FFFFFF" d="M547.772,255.101    c0,2.571-2.087,4.657-4.652,4.657c-2.575,0-4.657-2.086-4.657-4.657s2.082-4.657,4.657-4.657    C545.686,250.444,547.772,252.53,547.772,255.101z"/>
		<path clip-path="url(#SVGID_2_)" fill-rule="evenodd" clip-rule="evenodd" fill="#FFFFFF" d="M580.934,218.025    c0,2.571-2.08,4.654-4.657,4.654c-2.576,0-4.652-2.083-4.652-4.654s2.076-4.66,4.652-4.66    C578.854,213.366,580.934,215.455,580.934,218.025z"/>
		<path clip-path="url(#SVGID_2_)" fill-rule="evenodd" clip-rule="evenodd" fill="#FFFFFF" d="M580.934,165.111    c0,2.571-2.08,4.657-4.657,4.657c-2.576,0-4.652-2.086-4.652-4.657s2.076-4.659,4.652-4.659    C578.854,160.452,580.934,162.541,580.934,165.111z"/>
		<path clip-path="url(#SVGID_2_)" fill-rule="evenodd" clip-rule="evenodd" fill="#FFFFFF" d="M547.772,123.547    c0,2.571-2.087,4.657-4.652,4.657c-2.575,0-4.657-2.086-4.657-4.657s2.082-4.654,4.657-4.654    C545.686,118.893,547.772,120.977,547.772,123.547z"/>
		<g clip-path="url(#SVGID_2_)">
			<defs>
				<rect id="SVGID_5_" x="155.888" y="80.481" width="237.184" height="222.232"/>
			</defs>
			<clipPath id="SVGID_6_">
				<use xlink:href="#SVGID_5_" overflow="visible"/>
			</clipPath>
			
				<rect x="155.888" y="80.481" clip-path="url(#SVGID_6_)" fill-rule="evenodd" clip-rule="evenodd" fill="#F7941E" width="237.184" height="222.232"/>
			<path clip-path="url(#SVGID_6_)" fill-rule="evenodd" clip-rule="evenodd" fill="#FFFFFF" d="M275.66,111.983     c8.549,11.54,14.897,20.108,21.326,28.798c10.32-1.628,20.765-3.271,31.365-4.944c6.738,13.059-1.923,23.614-1.496,34.752     c8.456,6.327,16.942,12.69,25.834,19.355c-5.073,12.45-16.173,15.503-25.691,21.988c1.438,10.431,2.944,21.414,4.472,32.442     c-13.064,6.616-23.632-1.654-34.326-1.765c-6.533,8.903-12.828,17.5-20.982,28.594c-8.129-10.583-14.904-19.37-21.741-28.262     c-10.278,1.496-20.729,3.013-34.173,4.979c1.418-12.68,2.602-23.037,3.967-35.122c-7.534-5.521-16.542-12.132-27.942-20.497     c10.356-8.004,19.123-14.777,28.326-21.881c-1.532-9.906-3.133-20.376-5.2-33.894c13.271,1.504,24.223,2.739,35.485,4.017     C260.941,132.215,267.164,123.663,275.66,111.983z M283.014,198.149c-1.105,26.337,11.122,38.711,37.583,38.024     C319.727,209.758,310.323,200.24,283.014,198.149z M269.671,196.911c-30.428,5.07-38.895,14.164-38.293,39.863     C257.949,235.697,267.991,225.662,269.671,196.911z M230.219,146.56c3.335,29.251,13.096,38.566,38.93,38.43     C268.823,159.214,258.513,148.657,230.219,146.56z M281.761,185.725c28.668-1.546,41.39-15.54,37.37-39.636     C291.907,150.118,284.405,157.802,281.761,185.725z M247.54,191.938c-6.926-4.94-11.969-8.552-17.969-12.837     c-6.237,3.937-12.31,7.767-20.934,13.196c9.449,5.324,15.766,8.874,21.782,12.264     C236.509,200.072,241.076,196.701,247.54,191.938z M304.576,191.831c19.576,14.921,21.889,14.739,35.027-1.979     c-5.921-3.582-11.717-7.082-17.869-10.805C315.991,183.322,311.087,186.987,304.576,191.831z M263.439,236.953     c3.854,8.387,5.352,16.093,14.765,19.118c3.482-6.427,6.728-12.385,10.066-18.528c-4.166-5.736-7.706-10.62-12.237-16.874     C271.331,226.752,267.605,231.559,263.439,236.953z M275.86,163.731c4.572-6.711,8.477-12.427,12.822-18.801     c-4.483-6.427-8.245-11.79-13.669-19.547c-5.006,8.742-8.571,14.972-11.891,20.74     C267.547,152.244,270.846,156.814,275.86,163.731z"/>
			<path clip-path="url(#SVGID_6_)" fill-rule="evenodd" clip-rule="evenodd" fill="#FFFFFF" d="M157.073,0.869     c8.556,11.542,14.892,20.111,21.331,28.795c10.32-1.623,20.755-3.271,31.354-4.941c6.727,13.06-1.934,23.611-1.496,34.752     c8.455,6.325,16.952,12.694,25.854,19.357c-5.084,12.445-16.193,15.496-25.713,21.986c1.449,10.426,2.951,21.411,4.468,32.438     c-13.071,6.619-23.627-1.646-34.311-1.754c-6.538,8.9-12.849,17.495-20.987,28.589c-8.145-10.581-14.899-19.37-21.753-28.265     c-10.262,1.499-20.702,3.016-34.178,4.981c1.428-12.678,2.608-23.035,3.977-35.125c-7.522-5.521-16.541-12.132-27.946-20.49     c10.362-8.015,19.123-14.785,28.321-21.891c-1.512-9.901-3.114-20.374-5.19-33.889c13.271,1.501,24.223,2.737,35.485,4.017     C142.349,21.103,148.581,12.546,157.073,0.869z M164.421,87.032c-1.105,26.339,11.132,38.717,37.583,38.024     C201.134,98.646,191.731,89.123,164.421,87.032z M151.078,85.794c-30.417,5.076-38.882,14.163-38.292,39.863     C139.361,124.582,149.398,114.544,151.078,85.794z M111.616,35.443c3.344,29.256,13.118,38.567,38.94,38.43     C150.23,48.099,139.921,37.544,111.616,35.443z M163.167,74.607c28.669-1.543,41.391-15.538,37.378-39.634     C173.315,39.007,165.823,46.688,163.167,74.607z M128.948,80.827c-6.927-4.947-11.969-8.555-17.969-12.838     c-6.237,3.933-12.312,7.762-20.935,13.191c9.461,5.326,15.767,8.874,21.793,12.267C117.921,88.96,122.494,85.589,128.948,80.827z      M185.984,80.713c19.576,14.919,21.883,14.745,35.027-1.981c-5.921-3.577-11.706-7.08-17.858-10.802     C197.41,72.205,192.485,75.875,185.984,80.713z M144.846,125.838c3.856,8.384,5.354,16.097,14.767,19.113     c3.487-6.422,6.728-12.38,10.066-18.525c-4.166-5.737-7.696-10.617-12.226-16.867     C152.744,115.635,149.023,120.441,144.846,125.838z M157.258,52.616c4.583-6.711,8.486-12.427,12.833-18.799     c-4.483-6.43-8.25-11.797-13.66-19.547c-5.016,8.74-8.588,14.967-11.89,20.743C148.967,41.132,152.264,45.695,157.258,52.616z"/>
			<path clip-path="url(#SVGID_6_)" fill-rule="evenodd" clip-rule="evenodd" fill="#FFFFFF" d="M157.073,223.103     c8.556,11.54,14.892,20.104,21.331,28.795c10.32-1.628,20.755-3.276,31.354-4.946c6.727,13.064-1.934,23.616-1.496,34.752     c8.455,6.321,16.952,12.696,25.854,19.355c-5.084,12.453-16.193,15.497-25.713,21.988c1.449,10.431,2.951,21.413,4.468,32.439     c-13.071,6.622-23.627-1.648-34.311-1.759c-6.538,8.902-12.849,17.5-20.987,28.594c-8.145-10.578-14.899-19.364-21.753-28.268     c-10.262,1.496-20.702,3.019-34.178,4.978c1.428-12.668,2.608-23.025,3.977-35.116c-7.522-5.521-16.541-12.137-27.946-20.497     c10.362-8.008,19.123-14.776,28.321-21.888c-1.512-9.899-3.114-20.372-5.19-33.889c13.271,1.506,24.223,2.74,35.485,4.015     C142.349,243.332,148.581,234.78,157.073,223.103z M164.421,309.267c-1.105,26.34,11.132,38.709,37.583,38.019     C201.134,320.877,191.731,311.353,164.421,309.267z M151.078,308.028c-30.417,5.073-38.882,14.166-38.292,39.862     C139.361,346.816,149.398,336.775,151.078,308.028z M111.616,257.683c3.344,29.248,13.118,38.551,38.94,38.425     C150.23,270.326,139.921,259.774,111.616,257.683z M163.167,296.834c28.669-1.538,41.391-15.535,37.378-39.636     C173.315,261.233,165.823,268.914,163.167,296.834z M128.948,303.05c-6.927-4.941-11.969-8.549-17.969-12.832     c-6.237,3.935-12.312,7.765-20.935,13.19c9.461,5.326,15.767,8.882,21.793,12.265     C117.921,311.194,122.494,307.818,128.948,303.05z M185.984,302.945c19.576,14.919,21.883,14.739,35.027-1.981     c-5.921-3.576-11.706-7.08-17.858-10.804C197.41,294.442,192.485,298.099,185.984,302.945z M144.846,348.07     c3.856,8.382,5.354,16.099,14.767,19.112c3.487-6.416,6.728-12.38,10.066-18.527c-4.166-5.737-7.696-10.615-12.226-16.862     C152.744,337.866,149.023,342.677,144.846,348.07z M157.258,274.846c4.583-6.717,8.486-12.433,12.833-18.802     c-4.483-6.427-8.25-11.79-13.66-19.544c-5.016,8.74-8.588,14.972-11.89,20.74C148.967,263.361,152.264,267.929,157.258,274.846z"/>
			<path clip-path="url(#SVGID_6_)" fill-rule="evenodd" clip-rule="evenodd" fill="#FFFFFF" d="M394.257,223.096     c8.557,11.547,14.895,20.111,21.331,28.798c10.31-1.623,20.756-3.271,31.345-4.941c6.738,13.064-1.924,23.616-1.485,34.752     c8.445,6.321,16.941,12.696,25.834,19.355c-5.074,12.447-16.173,15.497-25.692,21.988c1.438,10.431,2.945,21.413,4.472,32.439     c-13.063,6.622-23.632-1.654-34.325-1.759c-6.533,8.902-12.838,17.5-20.987,28.594c-8.134-10.578-14.898-19.364-21.74-28.268     c-10.263,1.496-20.715,3.019-34.179,4.978c1.438-12.668,2.607-23.025,3.977-35.116c-7.533-5.521-16.551-12.137-27.951-20.497     c10.368-8.008,19.122-14.776,28.325-21.888c-1.521-9.904-3.123-20.372-5.199-33.889c13.28,1.506,24.223,2.74,35.495,4.015     C379.533,243.332,385.761,234.778,394.257,223.096z M401.596,309.267c-1.095,26.329,11.132,38.709,37.593,38.019     C438.318,320.877,428.905,311.353,401.596,309.267z M388.264,308.023c-30.418,5.078-38.894,14.16-38.305,39.867     C376.543,346.816,386.571,336.775,388.264,308.023z M348.812,257.677c3.33,29.254,13.097,38.557,38.94,38.431     C387.415,270.326,377.105,259.774,348.812,257.677z M400.354,296.834c28.668-1.543,41.39-15.535,37.376-39.636     C410.489,261.233,402.997,268.914,400.354,296.834z M366.132,303.05c-6.927-4.941-11.979-8.549-17.968-12.832     c-6.248,3.935-12.312,7.765-20.947,13.19c9.463,5.326,15.779,8.871,21.805,12.265     C355.101,311.194,359.679,307.818,366.132,303.05z M423.168,302.945c19.576,14.919,21.884,14.739,35.027-1.981     c-5.921-3.576-11.706-7.08-17.858-10.804C434.585,294.432,429.67,298.099,423.168,302.945z M382.021,348.07     c3.866,8.382,5.373,16.099,14.776,19.112c3.488-6.427,6.718-12.385,10.068-18.527c-4.168-5.737-7.708-10.615-12.237-16.873     C389.913,337.86,386.197,342.677,382.021,348.07z M394.442,274.846c4.583-6.717,8.477-12.433,12.845-18.802     c-4.495-6.427-8.256-11.795-13.677-19.546c-5.011,8.742-8.581,14.969-11.896,20.743     C386.141,263.361,389.438,267.929,394.442,274.846z"/>
			<path clip-path="url(#SVGID_6_)" fill-rule="evenodd" clip-rule="evenodd" fill="#FFFFFF" d="M394.257,0.869     c8.557,11.542,14.895,20.111,21.331,28.795c10.31-1.623,20.756-3.271,31.345-4.941c6.738,13.06-1.924,23.611-1.485,34.752     c8.445,6.325,16.941,12.694,25.834,19.357c-5.074,12.445-16.173,15.496-25.692,21.986c1.438,10.426,2.945,21.411,4.472,32.438     c-13.063,6.619-23.632-1.646-34.325-1.754c-6.533,8.9-12.838,17.495-20.987,28.589c-8.134-10.581-14.898-19.37-21.74-28.265     c-10.263,1.499-20.715,3.016-34.179,4.981c1.438-12.678,2.607-23.035,3.977-35.125c-7.533-5.521-16.551-12.132-27.951-20.49     c10.368-8.015,19.122-14.785,28.325-21.891c-1.521-9.901-3.123-20.374-5.199-33.889c13.28,1.501,24.223,2.737,35.495,4.017     C379.533,21.103,385.761,12.546,394.257,0.869z M401.596,87.032c-1.095,26.339,11.132,38.717,37.593,38.024     C438.318,98.646,428.905,89.123,401.596,87.032z M388.264,85.794c-30.418,5.076-38.894,14.163-38.305,39.863     C376.543,124.582,386.571,114.544,388.264,85.794z M348.812,35.443c3.33,29.256,13.097,38.567,38.94,38.43     C387.415,48.099,377.105,37.544,348.812,35.443z M400.354,74.607c28.668-1.543,41.39-15.538,37.376-39.634     C410.489,39.007,402.997,46.688,400.354,74.607z M366.132,80.827c-6.927-4.947-11.979-8.555-17.968-12.838     c-6.248,3.933-12.312,7.762-20.947,13.191c9.463,5.326,15.779,8.874,21.805,12.267C355.101,88.96,359.679,85.589,366.132,80.827z      M423.168,80.713c19.576,14.919,21.884,14.745,35.027-1.981c-5.921-3.577-11.706-7.08-17.858-10.802     C434.585,72.205,429.67,75.875,423.168,80.713z M382.021,125.838c3.866,8.384,5.373,16.097,14.776,19.113     c3.488-6.422,6.718-12.38,10.068-18.525c-4.168-5.737-7.708-10.617-12.237-16.867     C389.913,115.635,386.197,120.441,382.021,125.838z M394.442,52.616c4.583-6.711,8.477-12.427,12.845-18.799     c-4.495-6.43-8.256-11.797-13.677-19.547c-5.011,8.74-8.581,14.967-11.896,20.743C386.141,41.132,389.438,45.695,394.442,52.616z     "/>
		</g>
		<path clip-path="url(#SVGID_2_)" fill-rule="evenodd" clip-rule="evenodd" fill="#FFFFFF" d="M250.748,123.547    c0,2.571-2.081,4.657-4.657,4.657c-2.564,0-4.646-2.086-4.646-4.657s2.081-4.654,4.646-4.654    C248.667,118.893,250.748,120.977,250.748,123.547z"/>
		<path clip-path="url(#SVGID_2_)" fill-rule="evenodd" clip-rule="evenodd" fill="#FFFFFF" d="M211.849,165.111    c0,2.571-2.091,4.657-4.657,4.657c-2.586,0-4.667-2.086-4.667-4.657s2.081-4.659,4.667-4.659    C209.758,160.452,211.849,162.541,211.849,165.111z"/>
		<path clip-path="url(#SVGID_2_)" fill-rule="evenodd" clip-rule="evenodd" fill="#FFFFFF" d="M211.849,222.68    c0,2.573-2.091,4.662-4.657,4.662c-2.586,0-4.667-2.089-4.667-4.662c0-2.566,2.081-4.654,4.667-4.654    C209.758,218.025,211.849,220.114,211.849,222.68z"/>
		<path clip-path="url(#SVGID_2_)" fill-rule="evenodd" clip-rule="evenodd" fill="#FFFFFF" d="M250.748,255.101    c0,2.571-2.081,4.657-4.657,4.657c-2.564,0-4.646-2.086-4.646-4.657s2.081-4.657,4.646-4.657    C248.667,250.444,250.748,252.53,250.748,255.101z"/>
		<path clip-path="url(#SVGID_2_)" fill-rule="evenodd" clip-rule="evenodd" fill="#FFFFFF" d="M311.703,255.101    c0,2.571-2.085,4.657-4.655,4.657c-2.566,0-4.647-2.086-4.647-4.657s2.082-4.657,4.647-4.657    C309.618,250.444,311.703,252.53,311.703,255.101z"/>
		<path clip-path="url(#SVGID_2_)" fill-rule="evenodd" clip-rule="evenodd" fill="#FFFFFF" d="M344.865,218.025    c0,2.571-2.081,4.654-4.646,4.654c-2.577,0-4.658-2.083-4.658-4.654s2.081-4.66,4.658-4.66    C342.784,213.366,344.865,215.455,344.865,218.025z"/>
		<path clip-path="url(#SVGID_2_)" fill-rule="evenodd" clip-rule="evenodd" fill="#FFFFFF" d="M344.865,165.111    c0,2.571-2.081,4.657-4.646,4.657c-2.577,0-4.658-2.086-4.658-4.657s2.081-4.659,4.658-4.659    C342.784,160.452,344.865,162.541,344.865,165.111z"/>
		<path clip-path="url(#SVGID_2_)" fill-rule="evenodd" clip-rule="evenodd" fill="#FFFFFF" d="M311.703,123.547    c0,2.571-2.085,4.657-4.655,4.657c-2.566,0-4.647-2.086-4.647-4.657s2.082-4.654,4.647-4.654    C309.618,118.893,311.703,120.977,311.703,123.547z"/>
		<g clip-path="url(#SVGID_2_)">
			<defs>
				<rect id="SVGID_7_" x="393.072" y="301.665" width="237.185" height="222.239"/>
			</defs>
			<clipPath id="SVGID_8_">
				<use xlink:href="#SVGID_7_" overflow="visible"/>
			</clipPath>
			
				<rect x="393.072" y="301.665" clip-path="url(#SVGID_8_)" fill-rule="evenodd" clip-rule="evenodd" fill="#F7941E" width="237.185" height="222.239"/>
			<path clip-path="url(#SVGID_8_)" fill-rule="evenodd" clip-rule="evenodd" fill="#FFFFFF" d="M512.84,333.172     c8.556,11.548,14.903,20.108,21.33,28.796c10.32-1.623,20.766-3.271,31.354-4.941c6.738,13.054-1.922,23.605-1.485,34.757     c8.445,6.322,16.942,12.686,25.834,19.351c-5.074,12.447-16.183,15.498-25.691,21.988c1.438,10.436,2.949,21.403,4.467,32.439     c-13.069,6.61-23.638-1.649-34.321-1.754c-6.531,8.893-12.837,17.49-20.977,28.589c-8.145-10.578-14.907-19.371-21.751-28.263     c-10.271,1.485-20.724,3.015-34.179,4.973c1.438-12.674,2.607-23.031,3.978-35.116c-7.532-5.521-16.552-12.137-27.957-20.497     c10.373-8.013,19.138-14.776,28.33-21.889c-1.521-9.903-3.123-20.376-5.189-33.889c13.271,1.501,24.223,2.744,35.476,4.02     C498.116,353.401,504.353,344.846,512.84,333.172z M520.199,419.341c-1.106,26.334,11.126,38.708,37.582,38.023     C556.9,430.946,547.508,421.433,520.199,419.341z M506.855,418.097c-30.428,5.073-38.893,14.166-38.303,39.863     C495.135,456.886,505.175,446.845,506.855,418.097z M467.394,367.751c3.34,29.248,13.107,38.562,38.941,38.425     C506.007,380.395,495.697,369.848,467.394,367.751z M518.945,406.914c28.668-1.55,41.38-15.541,37.371-39.637     C529.092,371.307,521.591,378.988,518.945,406.914z M484.714,413.129c-6.917-4.946-11.969-8.554-17.969-12.837     c-6.237,3.936-12.311,7.76-20.936,13.196c9.463,5.32,15.778,8.87,21.794,12.264C473.688,421.269,478.271,417.892,484.714,413.129     z M541.75,413.014c19.576,14.93,21.894,14.745,35.037-1.976c-5.921-3.576-11.704-7.074-17.868-10.805     C553.177,404.511,548.252,408.178,541.75,413.014z M500.614,458.144c3.866,8.383,5.361,16.095,14.755,19.112     c3.502-6.42,6.738-12.379,10.076-18.532c-4.155-5.736-7.706-10.614-12.226-16.862     C508.515,447.94,504.789,452.744,500.614,458.144z M513.024,384.92c4.593-6.717,8.476-12.428,12.843-18.802     c-4.488-6.427-8.25-11.789-13.67-19.544c-5.004,8.739-8.576,14.972-11.89,20.745C504.733,373.436,508.03,378.003,513.024,384.92z     "/>
			<path clip-path="url(#SVGID_8_)" fill-rule="evenodd" clip-rule="evenodd" fill="#FFFFFF" d="M394.257,222.055     c8.557,11.542,14.895,20.107,21.331,28.8c10.31-1.623,20.756-3.276,31.345-4.946c6.738,13.064-1.924,23.616-1.485,34.752     c8.445,6.327,16.941,12.69,25.834,19.355c-5.074,12.452-16.173,15.508-25.692,21.988c1.438,10.431,2.945,21.414,4.472,32.439     c-13.063,6.621-23.632-1.644-34.325-1.76c-6.533,8.903-12.838,17.501-20.987,28.595c-8.134-10.578-14.898-19.364-21.74-28.268     c-10.263,1.496-20.715,3.023-34.179,4.983c1.438-12.675,2.607-23.031,3.977-35.127c-7.533-5.516-16.551-12.127-27.951-20.492     c10.368-8.013,19.122-14.782,28.325-21.883c-1.521-9.904-3.123-20.371-5.199-33.894c13.28,1.501,24.223,2.74,35.495,4.014     C379.533,242.292,385.761,233.735,394.257,222.055z M401.596,308.224c-1.095,26.334,11.132,38.709,37.593,38.024     C438.318,319.834,428.905,310.314,401.596,308.224z M388.264,306.991c-30.418,5.066-38.894,14.149-38.305,39.857     C376.543,345.773,386.571,335.733,388.264,306.991z M348.812,256.634c3.33,29.253,13.097,38.567,38.94,38.425     C387.415,269.283,377.105,258.736,348.812,256.634z M400.354,295.791c28.668-1.538,41.39-15.535,37.376-39.626     C410.489,260.19,402.997,267.871,400.354,295.791z M366.132,302.012c-6.927-4.946-11.979-8.554-17.968-12.837     c-6.248,3.94-12.312,7.76-20.947,13.19c9.463,5.326,15.779,8.871,21.805,12.27C355.101,310.151,359.679,306.775,366.132,302.012z      M423.168,301.902c19.576,14.919,21.884,14.739,35.027-1.981c-5.921-3.582-11.706-7.08-17.858-10.799     C434.585,293.389,429.67,297.061,423.168,301.902z M382.021,347.027c3.866,8.387,5.373,16.093,14.776,19.112     c3.488-6.422,6.718-12.38,10.068-18.522c-4.168-5.741-7.708-10.62-12.237-16.873     C389.913,336.823,386.197,341.622,382.021,347.027z M394.442,273.803c4.583-6.712,8.477-12.428,12.845-18.797     c-4.495-6.426-8.256-11.799-13.677-19.549c-5.011,8.745-8.581,14.977-11.896,20.751     C386.141,262.318,389.438,266.891,394.442,273.803z"/>
			<path clip-path="url(#SVGID_8_)" fill-rule="evenodd" clip-rule="evenodd" fill="#FFFFFF" d="M394.257,444.284     c8.557,11.548,14.895,20.112,21.331,28.805c10.31-1.626,20.756-3.275,31.345-4.94c6.738,13.053-1.924,23.601-1.485,34.741     c8.445,6.328,16.941,12.697,25.834,19.36c-5.074,12.442-16.173,15.498-25.692,21.988c1.438,10.425,2.945,21.415,4.472,32.435     c-13.063,6.622-23.632-1.647-34.325-1.754c-6.533,8.893-12.838,17.5-20.987,28.596c-8.134-10.578-14.898-19.371-21.74-28.268     c-10.263,1.495-20.715,3.012-34.179,4.973c1.438-12.676,2.607-23.031,3.977-35.111c-7.533-5.525-16.551-12.143-27.951-20.504     c10.368-8.007,19.122-14.771,28.325-21.877c-1.521-9.904-3.123-20.381-5.199-33.894c13.28,1.5,24.223,2.732,35.495,4.013     C379.533,464.52,385.761,455.968,394.257,444.284z M401.596,530.447c-1.095,26.341,11.132,38.72,37.593,38.03     C438.318,542.058,428.905,532.544,401.596,530.447z M388.264,529.215c-30.418,5.072-38.894,14.159-38.305,39.863     C376.543,567.997,386.571,557.962,388.264,529.215z M348.812,478.869c3.33,29.247,13.097,38.565,38.94,38.43     C387.415,491.517,377.105,480.96,348.812,478.869z M400.354,518.03c28.668-1.549,41.39-15.541,37.376-39.641     C410.489,482.424,402.997,490.105,400.354,518.03z M366.132,524.242c-6.927-4.941-11.979-8.557-17.968-12.839     c-6.248,3.936-12.312,7.765-20.947,13.196c9.463,5.325,15.779,8.872,21.805,12.264     C355.101,532.375,359.679,529.003,366.132,524.242z M423.168,524.137c19.576,14.918,21.884,14.739,35.027-1.98     c-5.921-3.583-11.706-7.086-17.858-10.807C434.585,515.628,429.67,519.289,423.168,524.137z M382.021,569.251     c3.866,8.392,5.373,16.099,14.776,19.118c3.488-6.423,6.718-12.381,10.068-18.528c-4.168-5.736-7.708-10.614-12.237-16.868     C389.913,559.053,386.197,563.866,382.021,569.251z M394.442,496.037c4.583-6.716,8.477-12.434,12.845-18.806     c-4.495-6.429-8.256-11.791-13.677-19.545c-5.011,8.745-8.581,14.971-11.896,20.739     C386.141,484.553,389.438,489.119,394.442,496.037z"/>
			<path clip-path="url(#SVGID_8_)" fill-rule="evenodd" clip-rule="evenodd" fill="#FFFFFF" d="M631.432,444.284     c8.556,11.548,14.893,20.112,21.331,28.795c10.319-1.616,20.755-3.266,31.366-4.931c6.716,13.053-1.924,23.601-1.508,34.741     c8.449,6.328,16.952,12.697,25.844,19.36c-5.071,12.442-16.172,15.498-25.701,21.988c1.447,10.425,2.955,21.415,4.479,32.435     c-13.071,6.622-23.639-1.647-34.321-1.754c-6.537,8.893-12.839,17.5-20.988,28.596c-8.134-10.59-14.897-19.371-21.741-28.268     c-10.262,1.495-20.724,3.012-34.178,4.973c1.428-12.676,2.606-23.031,3.967-35.111c-7.522-5.525-16.542-12.143-27.941-20.504     c10.377-8.007,19.122-14.781,28.325-21.877c-1.522-9.904-3.124-20.381-5.2-33.894c13.281,1.495,24.223,2.732,35.496,4.013     C616.708,464.52,622.939,455.968,631.432,444.284z M638.792,530.447c-1.117,26.341,11.12,38.715,37.581,38.023     C675.493,542.058,666.08,532.544,638.792,530.447z M625.438,529.215c-30.408,5.072-38.883,14.159-38.292,39.863     C613.722,567.997,623.757,557.962,625.438,529.215z M585.985,478.857c3.345,29.259,13.096,38.577,38.932,38.441     C624.6,491.517,614.289,480.96,585.985,478.857z M637.538,518.03c28.657-1.549,41.39-15.541,37.359-39.641     C647.664,482.424,640.183,490.105,637.538,518.03z M603.318,524.242c-6.929-4.941-11.97-8.557-17.97-12.839     c-6.248,3.936-12.321,7.765-20.945,13.196c9.461,5.32,15.777,8.872,21.782,12.264     C592.28,532.375,596.843,529.003,603.318,524.242z M660.343,524.137c19.575,14.918,21.894,14.739,35.026-1.98     c-5.91-3.583-11.705-7.086-17.857-10.807C671.77,515.623,666.844,519.289,660.343,524.137z M619.206,569.251     c3.854,8.392,5.361,16.099,14.765,19.118c3.492-6.423,6.729-12.381,10.066-18.528c-4.155-5.736-7.695-10.614-12.225-16.868     C627.107,559.053,623.383,563.866,619.206,569.251z M631.617,496.037c4.582-6.716,8.486-12.434,12.842-18.806     c-4.498-6.429-8.248-11.791-13.669-19.551c-5.005,8.751-8.581,14.977-11.88,20.745     C623.325,484.547,626.612,489.119,631.617,496.037z"/>
			<path clip-path="url(#SVGID_8_)" fill-rule="evenodd" clip-rule="evenodd" fill="#FFFFFF" d="M631.432,222.055     c8.556,11.542,14.893,20.107,21.331,28.8c10.319-1.623,20.755-3.276,31.366-4.946c6.716,13.064-1.924,23.616-1.508,34.752     c8.449,6.327,16.952,12.69,25.844,19.355c-5.071,12.452-16.172,15.508-25.701,21.988c1.447,10.431,2.955,21.414,4.479,32.439     c-13.071,6.621-23.639-1.644-34.321-1.76c-6.537,8.903-12.839,17.501-20.988,28.595c-8.134-10.578-14.897-19.364-21.741-28.268     c-10.262,1.496-20.724,3.023-34.178,4.983c1.428-12.675,2.606-23.031,3.967-35.127c-7.522-5.516-16.542-12.127-27.941-20.492     c10.377-8.013,19.122-14.782,28.325-21.883c-1.522-9.904-3.124-20.371-5.2-33.894c13.281,1.501,24.223,2.74,35.496,4.014     C616.708,242.292,622.939,233.735,631.432,222.055z M638.792,308.224c-1.117,26.334,11.12,38.709,37.581,38.024     C675.493,319.834,666.08,310.314,638.792,308.224z M625.438,306.991c-30.408,5.066-38.883,14.149-38.292,39.857     C613.722,345.773,623.757,335.733,625.438,306.991z M585.985,256.634c3.345,29.253,13.096,38.567,38.932,38.425     C624.6,269.283,614.289,258.736,585.985,256.634z M637.538,295.791c28.657-1.538,41.39-15.535,37.359-39.626     C647.664,260.19,640.183,267.871,637.538,295.791z M603.318,302.012c-6.929-4.946-11.97-8.554-17.97-12.837     c-6.248,3.94-12.321,7.76-20.945,13.19c9.461,5.326,15.777,8.871,21.782,12.27C592.28,310.151,596.843,306.775,603.318,302.012z      M660.343,301.902c19.575,14.919,21.894,14.739,35.026-1.981c-5.91-3.582-11.705-7.08-17.857-10.799     C671.77,293.389,666.844,297.061,660.343,301.902z M619.206,347.027c3.854,8.387,5.361,16.093,14.765,19.112     c3.492-6.422,6.729-12.38,10.066-18.522c-4.155-5.741-7.695-10.62-12.225-16.873     C627.107,336.823,623.383,341.622,619.206,347.027z M631.617,273.803c4.582-6.712,8.486-12.428,12.842-18.797     c-4.498-6.426-8.248-11.799-13.669-19.549c-5.005,8.745-8.581,14.977-11.88,20.751     C623.325,262.318,626.612,266.891,631.617,273.803z"/>
		</g>
		<path clip-path="url(#SVGID_2_)" fill-rule="evenodd" clip-rule="evenodd" fill="#FFFFFF" d="M487.943,344.736    c0,2.57-2.091,4.656-4.657,4.656c-2.575,0-4.667-2.086-4.667-4.656c0-2.571,2.092-4.652,4.667-4.652    C485.853,340.084,487.943,342.165,487.943,344.736z"/>
		<path clip-path="url(#SVGID_2_)" fill-rule="evenodd" clip-rule="evenodd" fill="#FFFFFF" d="M449.023,386.294    c0,2.582-2.091,4.668-4.656,4.668c-2.576,0-4.662-2.086-4.662-4.668c0-2.564,2.086-4.656,4.662-4.656    C446.933,381.638,449.023,383.729,449.023,386.294z"/>
		<path clip-path="url(#SVGID_2_)" fill-rule="evenodd" clip-rule="evenodd" fill="#FFFFFF" d="M449.023,443.873    c0,2.566-2.091,4.657-4.656,4.657c-2.576,0-4.662-2.091-4.662-4.657c0-2.575,2.086-4.657,4.662-4.657    C446.933,439.216,449.023,441.298,449.023,443.873z"/>
		<path clip-path="url(#SVGID_2_)" fill-rule="evenodd" clip-rule="evenodd" fill="#FFFFFF" d="M487.943,476.293    c0,2.564-2.091,4.646-4.657,4.646c-2.575,0-4.667-2.081-4.667-4.646c0-2.57,2.092-4.657,4.667-4.657    C485.853,471.636,487.943,473.723,487.943,476.293z"/>
		<path clip-path="url(#SVGID_2_)" fill-rule="evenodd" clip-rule="evenodd" fill="#FFFFFF" d="M548.889,476.293    c0,2.564-2.086,4.646-4.656,4.646c-2.566,0-4.647-2.081-4.647-4.646c0-2.57,2.081-4.657,4.647-4.657    C546.803,471.636,548.889,473.723,548.889,476.293z"/>
		<path clip-path="url(#SVGID_2_)" fill-rule="evenodd" clip-rule="evenodd" fill="#FFFFFF" d="M582.05,439.216    c0,2.571-2.081,4.657-4.646,4.657c-2.587,0-4.668-2.086-4.668-4.657c0-2.57,2.081-4.656,4.668-4.656    C579.969,434.56,582.05,436.646,582.05,439.216z"/>
		<path clip-path="url(#SVGID_2_)" fill-rule="evenodd" clip-rule="evenodd" fill="#FFFFFF" d="M582.05,386.294    c0,2.582-2.081,4.668-4.646,4.668c-2.587,0-4.668-2.086-4.668-4.668c0-2.564,2.081-4.656,4.668-4.656    C579.969,381.638,582.05,383.729,582.05,386.294z"/>
		<path clip-path="url(#SVGID_2_)" fill-rule="evenodd" clip-rule="evenodd" fill="#FFFFFF" d="M548.889,344.736    c0,2.57-2.086,4.656-4.656,4.656c-2.566,0-4.647-2.086-4.647-4.656c0-2.571,2.081-4.652,4.647-4.652    C546.803,340.084,548.889,342.165,548.889,344.736z"/>
		<g clip-path="url(#SVGID_2_)">
			<defs>
				<rect id="SVGID_9_" x="157.005" y="301.665" width="237.185" height="222.239"/>
			</defs>
			<clipPath id="SVGID_10_">
				<use xlink:href="#SVGID_9_" overflow="visible"/>
			</clipPath>
			
				<rect x="157.005" y="301.665" clip-path="url(#SVGID_10_)" fill-rule="evenodd" clip-rule="evenodd" fill="#F7941E" width="237.185" height="222.239"/>
			<path clip-path="url(#SVGID_10_)" fill-rule="evenodd" clip-rule="evenodd" fill="#FFFFFF" d="M276.777,333.172     c8.561,11.548,14.899,20.108,21.331,28.796c10.33-1.623,20.76-3.271,31.359-4.941c6.733,13.054-1.917,23.605-1.495,34.757     c8.438,6.322,16.941,12.686,25.834,19.351c-5.062,12.447-16.173,15.498-25.687,21.988c1.433,10.436,2.949,21.403,4.461,32.439     c-13.064,6.61-23.627-1.649-34.32-1.754c-6.526,8.893-12.833,17.49-20.972,28.589c-8.14-10.578-14.919-19.371-21.756-28.263     c-10.262,1.485-20.714,3.015-34.164,4.973c1.423-12.674,2.603-23.031,3.962-35.116c-7.522-5.521-16.547-12.137-27.947-20.497     c10.377-8.013,19.123-14.776,28.32-21.889c-1.522-9.903-3.123-20.376-5.199-33.889c13.281,1.501,24.237,2.744,35.5,4.02     C262.058,353.401,268.28,344.846,276.777,333.172z M284.132,419.341c-1.107,26.334,11.121,38.708,37.582,38.023     C320.845,430.946,311.435,421.433,284.132,419.341z M270.776,418.097c-30.401,5.073-38.882,14.166-38.281,39.863     C259.072,456.886,269.103,446.845,270.776,418.097z M231.335,367.751c3.329,29.248,13.096,38.562,38.92,38.425     C269.939,380.395,259.629,369.848,231.335,367.751z M282.878,406.914c28.673-1.55,41.39-15.541,37.371-39.637     C293.012,371.307,285.521,378.988,282.878,406.914z M248.656,413.129c-6.921-4.946-11.979-8.554-17.962-12.837     c-6.249,3.936-12.328,7.76-20.936,13.196c9.444,5.32,15.761,8.87,21.788,12.264C237.625,421.269,242.198,417.892,248.656,413.129     z M305.704,413.014c19.559,14.93,21.882,14.745,35.016-1.976c-5.911-3.576-11.706-7.074-17.87-10.805     C317.114,404.511,312.194,408.178,305.704,413.014z M264.556,458.144c3.861,8.383,5.352,16.095,14.755,19.112     c3.504-6.42,6.733-12.379,10.088-18.532c-4.177-5.736-7.713-10.614-12.249-16.862     C272.447,447.94,268.733,452.744,264.556,458.144z M276.977,384.92c4.584-6.717,8.477-12.428,12.828-18.802     c-4.483-6.427-8.244-11.789-13.665-19.544c-5.014,8.739-8.581,14.972-11.89,20.745     C268.664,373.436,271.973,378.003,276.977,384.92z"/>
			<path clip-path="url(#SVGID_10_)" fill-rule="evenodd" clip-rule="evenodd" fill="#FFFFFF" d="M158.194,222.055     c8.54,11.542,14.889,20.107,21.331,28.8c10.31-1.623,20.75-3.276,31.35-4.946c6.738,13.064-1.917,23.616-1.496,34.752     c8.449,6.327,16.94,12.69,25.844,19.355c-5.072,12.452-16.183,15.508-25.691,21.988c1.427,10.431,2.944,21.414,4.466,32.439     c-13.074,6.621-23.647-1.644-34.331-1.76c-6.516,8.903-12.823,17.501-20.982,28.595c-8.129-10.578-14.887-19.364-21.736-28.268     c-10.273,1.496-20.724,3.023-34.173,4.983c1.417-12.675,2.592-23.031,3.962-35.127c-7.523-5.516-16.542-12.127-27.937-20.492     c10.368-8.013,19.122-14.782,28.311-21.883c-1.512-9.904-3.114-20.371-5.19-33.894c13.271,1.501,24.228,2.74,35.49,4.014     C143.466,242.292,149.688,233.735,158.194,222.055z M165.533,308.224c-1.1,26.334,11.137,38.709,37.588,38.024     C202.251,319.834,192.853,310.314,165.533,308.224z M152.184,306.991c-30.401,5.066-38.872,14.149-38.283,39.857     C140.49,345.773,150.515,335.733,152.184,306.991z M112.744,256.634c3.34,29.253,13.095,38.567,38.929,38.425     C151.357,269.283,141.027,258.736,112.744,256.634z M164.286,295.791c28.673-1.538,41.39-15.535,37.381-39.626     C174.432,260.19,166.939,267.871,164.286,295.791z M130.064,302.012c-6.922-4.946-11.979-8.554-17.964-12.837     c-6.242,3.94-12.316,7.76-20.935,13.19c9.456,5.326,15.762,8.871,21.793,12.27C119.033,310.151,123.611,306.775,130.064,302.012z      M187.11,301.902c19.571,14.919,21.884,14.739,35.017-1.981c-5.92-3.582-11.706-7.08-17.858-10.799     C198.532,293.389,193.601,297.061,187.11,301.902z M145.962,347.027c3.861,8.387,5.354,16.093,14.767,19.112     c3.482-6.422,6.733-12.38,10.068-18.522c-4.157-5.741-7.702-10.62-12.238-16.873     C153.855,336.823,150.129,341.622,145.962,347.027z M158.375,273.803c4.572-6.712,8.486-12.428,12.837-18.797     c-4.483-6.426-8.244-11.799-13.665-19.549c-5.016,8.745-8.581,14.977-11.89,20.751     C150.072,262.318,153.38,266.891,158.375,273.803z"/>
			<path clip-path="url(#SVGID_10_)" fill-rule="evenodd" clip-rule="evenodd" fill="#FFFFFF" d="M158.194,444.284     c8.54,11.548,14.889,20.112,21.331,28.805c10.31-1.626,20.75-3.275,31.35-4.94c6.738,13.053-1.917,23.601-1.496,34.741     c8.449,6.328,16.94,12.697,25.844,19.36c-5.072,12.442-16.183,15.498-25.691,21.988c1.427,10.425,2.944,21.415,4.466,32.435     c-13.074,6.622-23.647-1.647-34.331-1.754c-6.516,8.893-12.823,17.5-20.982,28.596c-8.129-10.578-14.887-19.371-21.736-28.268     c-10.273,1.495-20.724,3.012-34.173,4.973c1.417-12.676,2.592-23.031,3.962-35.111c-7.523-5.525-16.542-12.143-27.937-20.504     c10.368-8.007,19.122-14.771,28.311-21.877c-1.512-9.904-3.114-20.381-5.19-33.894c13.271,1.5,24.228,2.732,35.49,4.013     C143.466,464.52,149.688,455.968,158.194,444.284z M165.533,530.447c-1.1,26.341,11.137,38.72,37.588,38.03     C202.251,542.058,192.853,532.544,165.533,530.447z M152.184,529.215c-30.401,5.072-38.872,14.159-38.283,39.863     C140.49,567.997,150.515,557.962,152.184,529.215z M112.744,478.869c3.34,29.247,13.095,38.565,38.929,38.43     C151.357,491.517,141.027,480.96,112.744,478.869z M164.286,518.03c28.673-1.549,41.39-15.541,37.381-39.641     C174.432,482.424,166.939,490.105,164.286,518.03z M130.064,524.242c-6.922-4.941-11.979-8.557-17.964-12.839     c-6.242,3.936-12.316,7.765-20.935,13.196c9.456,5.325,15.762,8.872,21.793,12.264     C119.033,532.375,123.611,529.003,130.064,524.242z M187.11,524.137c19.571,14.918,21.884,14.739,35.017-1.98     c-5.92-3.583-11.706-7.086-17.858-10.807C198.532,515.628,193.601,519.289,187.11,524.137z M145.962,569.251     c3.861,8.392,5.354,16.099,14.767,19.118c3.482-6.423,6.733-12.381,10.068-18.528c-4.157-5.736-7.702-10.614-12.238-16.868     C153.855,559.053,150.129,563.866,145.962,569.251z M158.375,496.037c4.572-6.716,8.486-12.434,12.837-18.806     c-4.483-6.429-8.244-11.791-13.665-19.545c-5.016,8.745-8.581,14.971-11.89,20.739     C150.072,484.553,153.38,489.119,158.375,496.037z"/>
			<path clip-path="url(#SVGID_10_)" fill-rule="evenodd" clip-rule="evenodd" fill="#FFFFFF" d="M395.369,444.284     c8.556,11.548,14.898,20.112,21.341,28.795c10.314-1.616,20.752-3.266,31.339-4.931c6.743,13.053-1.917,23.601-1.495,34.741     c8.46,6.328,16.952,12.697,25.844,19.36c-5.072,12.442-16.173,15.498-25.696,21.988c1.433,10.425,2.959,21.415,4.472,32.435     c-13.06,6.622-23.638-1.647-34.321-1.754c-6.526,8.893-12.832,17.5-20.972,28.596c-8.149-10.59-14.907-19.371-21.756-28.268     c-10.262,1.495-20.714,3.012-34.174,4.973c1.433-12.676,2.593-23.031,3.963-35.111c-7.513-5.525-16.537-12.143-27.937-20.504     c10.358-8.007,19.113-14.781,28.321-21.877c-1.522-9.904-3.124-20.381-5.2-33.894c13.281,1.495,24.228,2.732,35.5,4.013     C380.65,464.52,386.882,455.968,395.369,444.284z M402.718,530.447c-1.101,26.341,11.127,38.715,37.588,38.023     C439.431,542.058,430.027,532.544,402.718,530.447z M389.38,529.215c-30.423,5.072-38.893,14.159-38.304,39.863     C377.654,567.997,387.699,557.962,389.38,529.215z M349.918,478.857c3.35,29.259,13.105,38.577,38.939,38.441     C388.531,491.517,378.222,480.96,349.918,478.857z M401.47,518.03c28.663-1.549,41.38-15.541,37.382-39.641     C411.604,482.424,404.113,490.105,401.47,518.03z M367.249,524.242c-6.922-4.941-11.979-8.557-17.963-12.839     c-6.259,3.936-12.328,7.765-20.945,13.196c9.461,5.32,15.772,8.872,21.799,12.264     C356.218,532.375,360.79,529.003,367.249,524.242z M424.28,524.137c19.587,14.918,21.888,14.739,35.021-1.98     c-5.911-3.583-11.696-7.086-17.858-10.807C435.706,515.623,430.786,519.289,424.28,524.137z M383.148,569.251     c3.861,8.392,5.352,16.099,14.765,19.118c3.494-6.423,6.724-12.381,10.078-18.528c-4.177-5.736-7.712-10.614-12.259-16.868     C391.039,559.053,387.315,563.866,383.148,569.251z M395.559,496.037c4.585-6.716,8.487-12.434,12.838-18.806     c-4.493-6.429-8.253-11.791-13.675-19.551c-5.004,8.751-8.581,14.977-11.89,20.745     C387.256,484.547,390.564,489.119,395.559,496.037z"/>
			<path clip-path="url(#SVGID_10_)" fill-rule="evenodd" clip-rule="evenodd" fill="#FFFFFF" d="M395.369,222.055     c8.556,11.542,14.898,20.107,21.341,28.8c10.314-1.623,20.752-3.276,31.339-4.946c6.743,13.064-1.917,23.616-1.495,34.752     c8.46,6.327,16.952,12.69,25.844,19.355c-5.072,12.452-16.173,15.508-25.696,21.988c1.433,10.431,2.959,21.414,4.472,32.439     c-13.06,6.621-23.638-1.644-34.321-1.76c-6.526,8.903-12.832,17.501-20.972,28.595c-8.149-10.578-14.907-19.364-21.756-28.268     c-10.262,1.496-20.714,3.023-34.174,4.983c1.433-12.675,2.593-23.031,3.963-35.127c-7.513-5.516-16.537-12.127-27.937-20.492     c10.358-8.013,19.113-14.782,28.321-21.883c-1.522-9.904-3.124-20.371-5.2-33.894c13.281,1.501,24.228,2.74,35.5,4.014     C380.65,242.292,386.882,233.735,395.369,222.055z M402.718,308.224c-1.101,26.334,11.127,38.709,37.588,38.024     C439.431,319.834,430.027,310.314,402.718,308.224z M389.38,306.991c-30.423,5.066-38.893,14.149-38.304,39.857     C377.654,345.773,387.699,335.733,389.38,306.991z M349.918,256.634c3.35,29.253,13.105,38.567,38.939,38.425     C388.531,269.283,378.222,258.736,349.918,256.634z M401.47,295.791c28.663-1.538,41.38-15.535,37.382-39.626     C411.604,260.19,404.113,267.871,401.47,295.791z M367.249,302.012c-6.922-4.946-11.979-8.554-17.963-12.837     c-6.259,3.94-12.328,7.76-20.945,13.19c9.461,5.326,15.772,8.871,21.799,12.27C356.218,310.151,360.79,306.775,367.249,302.012z      M424.28,301.902c19.587,14.919,21.888,14.739,35.021-1.981c-5.911-3.582-11.696-7.08-17.858-10.799     C435.706,293.389,430.786,297.061,424.28,301.902z M383.148,347.027c3.861,8.387,5.352,16.093,14.765,19.112     c3.494-6.422,6.724-12.38,10.078-18.522c-4.177-5.741-7.712-10.62-12.259-16.873     C391.039,336.823,387.315,341.622,383.148,347.027z M395.559,273.803c4.585-6.712,8.487-12.428,12.838-18.797     c-4.493-6.426-8.253-11.799-13.675-19.549c-5.004,8.745-8.581,14.977-11.89,20.751     C387.256,262.318,390.564,266.891,395.559,273.803z"/>
		</g>
		<path clip-path="url(#SVGID_2_)" fill-rule="evenodd" clip-rule="evenodd" fill="#FFFFFF" d="M251.871,344.736    c0,2.57-2.086,4.656-4.652,4.656c-2.576,0-4.657-2.086-4.657-4.656c0-2.571,2.081-4.652,4.657-4.652    C249.785,340.084,251.871,342.165,251.871,344.736z"/>
		<path clip-path="url(#SVGID_2_)" fill-rule="evenodd" clip-rule="evenodd" fill="#FFFFFF" d="M212.956,386.294    c0,2.582-2.081,4.668-4.657,4.668c-2.576,0-4.657-2.086-4.657-4.668c0-2.564,2.081-4.656,4.657-4.656    C210.875,381.638,212.956,383.729,212.956,386.294z"/>
		<path clip-path="url(#SVGID_2_)" fill-rule="evenodd" clip-rule="evenodd" fill="#FFFFFF" d="M212.956,443.873    c0,2.566-2.081,4.657-4.657,4.657c-2.576,0-4.657-2.091-4.657-4.657c0-2.575,2.081-4.657,4.657-4.657    C210.875,439.216,212.956,441.298,212.956,443.873z"/>
		<path clip-path="url(#SVGID_2_)" fill-rule="evenodd" clip-rule="evenodd" fill="#FFFFFF" d="M251.871,476.293    c0,2.564-2.086,4.646-4.652,4.646c-2.576,0-4.657-2.081-4.657-4.646c0-2.57,2.081-4.657,4.657-4.657    C249.785,471.636,251.871,473.723,251.871,476.293z"/>
		<path clip-path="url(#SVGID_2_)" fill-rule="evenodd" clip-rule="evenodd" fill="#FFFFFF" d="M312.821,476.293    c0,2.564-2.071,4.646-4.647,4.646s-4.657-2.081-4.657-4.646c0-2.57,2.082-4.657,4.657-4.657S312.821,473.723,312.821,476.293z"/>
		<path clip-path="url(#SVGID_2_)" fill-rule="evenodd" clip-rule="evenodd" fill="#FFFFFF" d="M345.987,439.216    c0,2.571-2.086,4.657-4.662,4.657c-2.565,0-4.646-2.086-4.646-4.657c0-2.57,2.08-4.656,4.646-4.656    C343.901,434.56,345.987,436.646,345.987,439.216z"/>
		<path clip-path="url(#SVGID_2_)" fill-rule="evenodd" clip-rule="evenodd" fill="#FFFFFF" d="M345.987,386.294    c0,2.582-2.086,4.668-4.662,4.668c-2.565,0-4.646-2.086-4.646-4.668c0-2.564,2.08-4.656,4.646-4.656    C343.901,381.638,345.987,383.729,345.987,386.294z"/>
		<path clip-path="url(#SVGID_2_)" fill-rule="evenodd" clip-rule="evenodd" fill="#FFFFFF" d="M312.821,344.736    c0,2.57-2.071,4.656-4.647,4.656s-4.657-2.086-4.657-4.656c0-2.571,2.082-4.652,4.657-4.652S312.821,342.165,312.821,344.736z"/>
	</g>
	<g>
		<g>
			<path fill="#EC008C" d="M306.826,252.636c0-2.392,0.294-5.026,0.906-7.903c0.615-2.87,1.5-5.747,2.68-8.621     c1.174-2.878,2.592-5.623,4.242-8.244c1.659-2.624,3.55-4.857,5.667-6.704c2.113-1.846,4.43-3.177,6.917-3.996     c2.509-0.819,5.18-0.867,8.034-0.152l3.019-3.531c0.422-0.336,0.869-0.492,1.322-0.471c0.465,0.024,0.854,0.161,1.19,0.409     c0.343,0.253,0.564,0.576,0.659,0.974c0.104,0.404,0.01,0.791-0.28,1.167l-3.077,3.337c1.055,1.219,1.756,2.571,2.104,4.051     c0.358,1.499,0.453,2.974,0.279,4.441c-0.152,1.472-0.548,2.876-1.128,4.222c-0.589,1.341-1.311,2.495-2.171,3.456     c-0.858,0.967-1.802,1.67-2.834,2.107c-1.021,0.443-2.064,0.477-3.113,0.098c-1.807-0.63-2.972-1.607-3.492-2.926     c-0.533-1.323-0.615-2.813-0.316-4.468c0.316-1.657,0.943-3.369,1.896-5.131c0.938-1.759,1.981-3.398,3.108-4.91     c-2.107-0.165-4.088,0.264-5.974,1.294c-1.896,1.027-3.635,2.431-5.236,4.214c-1.591,1.783-3.034,3.84-4.336,6.169     c-1.291,2.325-2.412,4.717-3.333,7.175c-0.918,2.454-1.634,4.849-2.144,7.209c-0.491,2.344-0.771,4.447-0.812,6.29     c-0.048,3.019,0.511,5.342,1.669,6.986c1.148,1.638,2.693,2.739,4.621,3.308c1.939,0.559,4.146,0.659,6.642,0.274     c2.498-0.374,5.064-1.063,7.708-2.075c2.44-0.917,4.853-2.013,7.237-3.267c2.393-1.264,4.621-2.581,6.707-3.972     c2.071-1.379,3.94-2.765,5.631-4.151c1.677-1.385,3.029-2.644,4.021-3.771c0.384-0.337,0.721-0.422,1.042-0.253     c0.317,0.169,0.538,0.458,0.665,0.88c0.126,0.416,0.152,0.89,0.095,1.417c-0.063,0.527-0.269,0.954-0.596,1.285     c-1.354,1.301-2.892,2.676-4.631,4.13c-1.743,1.444-3.646,2.855-5.726,4.246c-2.086,1.38-4.283,2.697-6.617,3.93     c-2.312,1.238-4.725,2.297-7.201,3.176c-3.145,1.138-6.232,1.881-9.251,2.239c-3.027,0.348-5.688,0.142-8.033-0.632     c-2.313-0.78-4.192-2.224-5.62-4.346C307.537,259.479,306.826,256.492,306.826,252.636z M331.559,234.069     c0.754,0.376,1.459,0.405,2.103,0.089c0.653-0.313,1.242-0.85,1.765-1.602c0.521-0.758,0.927-1.657,1.228-2.702     c0.295-1.05,0.469-2.11,0.536-3.18c0.06-1.072-0.036-2.067-0.316-2.989c-0.279-0.927-0.726-1.659-1.348-2.207     c-0.801,0.97-1.585,2.1-2.34,3.403c-0.747,1.299-1.357,2.576-1.822,3.838c-0.464,1.259-0.7,2.378-0.722,3.366     C330.627,233.073,330.921,233.731,331.559,234.069z"/>
			<path fill="#EC008C" d="M319.864,269.493c-2.207,0-4.273-0.316-6.147-0.938c-2.909-0.969-5.272-2.797-7.038-5.421     c-1.734-2.571-2.614-6.105-2.614-10.499c0-2.582,0.328-5.437,0.974-8.471c0.639-3.026,1.592-6.082,2.829-9.093     c1.212-2.981,2.708-5.898,4.452-8.674c1.807-2.842,3.888-5.302,6.201-7.314c2.38-2.078,5.026-3.603,7.869-4.533     c2.467-0.809,5.101-0.996,7.851-0.559l2.324-2.655c0.89-0.706,1.912-1.077,2.959-1.077c1.228,0.052,2.145,0.371,2.924,0.953     c0.859,0.638,1.433,1.499,1.688,2.503c0.325,1.208,0.046,2.483-0.781,3.548l-1.728,1.87c0.579,1.001,0.996,2.068,1.265,3.182     c0.422,1.794,0.537,3.609,0.337,5.39c-0.185,1.693-0.639,3.379-1.338,5.002c-0.696,1.614-1.592,3.023-2.646,4.204     c-1.139,1.261-2.412,2.21-3.809,2.802c-1.649,0.714-3.424,0.767-5.12,0.161c-3.202-1.122-4.562-3.071-5.131-4.512     c-0.7-1.78-0.869-3.797-0.463-5.981c0.321-1.639,0.89-3.309,1.695-4.983c-1.095,0.758-2.148,1.696-3.133,2.792     c-1.444,1.622-2.783,3.529-3.983,5.673c-1.233,2.209-2.301,4.499-3.16,6.801c-0.875,2.331-1.56,4.628-2.035,6.813     c-0.452,2.176-0.715,4.125-0.753,5.78c-0.026,2.391,0.364,4.192,1.165,5.331c0.795,1.127,1.823,1.859,3.155,2.25     c1.533,0.448,3.366,0.521,5.447,0.205c2.308-0.347,4.71-1,7.139-1.928c2.312-0.875,4.646-1.928,6.953-3.14     c2.265-1.201,4.447-2.486,6.448-3.814c1.971-1.317,3.782-2.655,5.405-3.988c1.569-1.301,2.823-2.465,3.709-3.477l0.251-0.248     c0.965-0.84,1.907-1.017,2.529-1.017c0.569,0,1.127,0.142,1.628,0.414c0.975,0.52,1.687,1.425,2.014,2.558     c0.225,0.727,0.288,1.591,0.172,2.502c-0.131,1.133-0.615,2.139-1.385,2.897c-1.406,1.37-3.019,2.803-4.815,4.294     c-1.826,1.522-3.835,3.008-5.945,4.43c-2.151,1.422-4.457,2.792-6.859,4.066c-2.419,1.286-4.963,2.413-7.577,3.34     c-3.309,1.191-6.627,1.992-9.839,2.371C321.877,269.43,320.854,269.493,319.864,269.493z"/>
		</g>
		<g>
			<path fill="#EC008C" d="M366.923,256.155c-0.579,0.632-1.275,1.396-2.076,2.297c-0.801,0.906-1.669,1.812-2.576,2.739     c-0.931,0.922-1.907,1.792-2.928,2.613c-1.034,0.822-2.066,1.438-3.113,1.854c-1.054,0.421-2.108,0.59-3.146,0.505     c-1.054-0.084-2.055-0.569-3.03-1.453c-1.38-1.254-2.159-2.813-2.323-4.679c-0.162-1.875,0.106-3.824,0.849-5.858     c0.733-2.033,1.854-4.067,3.336-6.1c1.495-2.038,3.202-3.851,5.12-5.45c1.938-1.591,4.003-2.882,6.2-3.869     c2.212-0.983,4.398-1.459,6.579-1.415c1.476,0.042,2.691,0.321,3.614,0.848c0.953,0.524,1.554,1.333,1.807,2.426     c0.162,0.711,0.037,1.678-0.38,2.892c-0.421,1.218-1.127,2.956-2.138,5.221c-1.218,3.276-1.871,5.878-1.949,7.807     c-0.086,1.928,0.104,3.393,0.6,4.373c0.47,0.991,1.097,1.618,1.839,1.886c0.774,0.28,1.39,0.411,1.903,0.411     c2.012-0.247,3.938-0.932,5.747-2.044c1.826-1.117,3.612-2.486,5.356-4.125c1.738-1.633,3.435-3.45,5.094-5.442     c1.659-1.991,3.335-3.972,5.004-5.941c0.374-0.211,0.696-0.164,0.943,0.147c0.253,0.321,0.448,0.728,0.569,1.233     c0.127,0.506,0.168,1.043,0.127,1.601c-0.038,0.569-0.19,1.001-0.443,1.296c-1.512,1.633-3.056,3.387-4.657,5.257     c-1.601,1.859-3.297,3.614-5.12,5.247c-1.844,1.639-3.808,3.045-5.957,4.225c-2.144,1.17-4.483,1.907-7.044,2.191     c-1.722,0-3.104-0.285-4.15-0.879c-1.054-0.584-1.865-1.359-2.434-2.318c-0.56-0.969-0.929-2.102-1.097-3.403     C366.881,258.947,366.833,257.588,366.923,256.155z M370.769,241.178c-1.476-0.164-3.066,0.116-4.794,0.848     c-1.717,0.734-3.371,1.723-5.006,2.96c-1.611,1.238-3.111,2.655-4.493,4.246c-1.375,1.597-2.508,3.161-3.365,4.689     c-0.865,1.538-1.386,2.96-1.571,4.277c-0.193,1.328,0.096,2.339,0.839,3.056c0.849,0.795,1.859,0.975,3.061,0.537     c1.201-0.443,2.455-1.253,3.776-2.423c1.324-1.175,2.646-2.624,3.963-4.347c1.321-1.717,2.527-3.45,3.588-5.189     c1.073-1.738,1.98-3.403,2.701-4.973C370.21,243.285,370.632,242.06,370.769,241.178z"/>
			<path fill="#EC008C" d="M374.889,269.609h-0.159c-2.224,0-4.03-0.4-5.506-1.233c-1.474-0.821-2.627-1.938-3.449-3.339     c-0.432-0.738-0.779-1.549-1.034-2.424c-0.172,0.169-0.347,0.343-0.509,0.517c-1.022,1.011-2.081,1.959-3.172,2.824     c-1.239,0.984-2.529,1.749-3.81,2.265c-1.438,0.569-2.924,0.801-4.383,0.696c-1.676-0.143-3.244-0.864-4.666-2.17     c-1.908-1.728-2.988-3.909-3.22-6.469c-0.195-2.287,0.147-4.657,1.006-7.038c0.808-2.245,2.055-4.531,3.699-6.785     c1.633-2.224,3.514-4.218,5.595-5.948c2.133-1.751,4.424-3.187,6.837-4.264c2.471-1.101,4.957-1.654,7.417-1.654h0.337     c1.949,0.056,3.589,0.461,4.91,1.201c1.618,0.901,2.708,2.355,3.14,4.205c0.278,1.24,0.126,2.673-0.463,4.406     c-0.479,1.39-1.234,3.218-2.233,5.458c-1.044,2.823-1.645,5.167-1.707,6.795c-0.09,1.987,0.188,2.788,0.315,3.046     c0.174,0.358,0.316,0.505,0.357,0.526c0.412,0.148,0.664,0.2,0.812,0.222c1.532-0.222,3.018-0.774,4.414-1.633     c1.659-1,3.309-2.276,4.92-3.783c1.618-1.533,3.268-3.287,4.857-5.194c1.66-2.002,3.34-3.993,5.016-5.974l0.337-0.379     l0.433-0.248c1.548-0.846,3.35-0.49,4.418,0.843c0.512,0.638,0.881,1.407,1.103,2.297c0.188,0.77,0.258,1.607,0.188,2.471     c-0.073,1.17-0.452,2.133-1.096,2.882c-1.553,1.68-3.077,3.408-4.651,5.252c-1.675,1.959-3.492,3.814-5.367,5.51     c-1.991,1.77-4.167,3.314-6.475,4.578c-2.45,1.343-5.168,2.197-8.061,2.523L374.889,269.609z M366.411,244.855     c-1.264,0.601-2.527,1.386-3.771,2.324c-1.464,1.122-2.846,2.429-4.083,3.861c-1.269,1.47-2.291,2.892-3.034,4.23     c-0.706,1.222-1.116,2.339-1.254,3.318c-0.079,0.496,0,0.665,0,0.665c1.08-0.369,2.064-1.002,3.113-1.95     c1.185-1.043,2.402-2.381,3.62-3.961c1.264-1.644,2.417-3.309,3.413-4.952C365.162,247.179,365.832,245.998,366.411,244.855z"/>
		</g>
		<g>
			<path fill="#EC008C" d="M400.78,263.651c0-1.227,0.258-2.302,0.753-3.239c0.506-0.958,1.174-1.759,1.981-2.435     c0.82-0.674,1.728-1.253,2.738-1.759c1.018-0.5,2.018-0.921,3.002-1.264c0.977-0.333,1.919-0.622,2.793-0.875     c0.88-0.247,1.611-0.5,2.214-0.757c0.198-0.754,0.384-1.792,0.525-3.114c0.147-1.322,0.159-2.65,0.031-3.994     c-0.137-1.343-0.453-2.555-0.984-3.619c-0.522-1.069-1.35-1.733-2.477-1.981c-1.09-0.211-2.413,0.155-3.936,1.101     c-1.531,0.943-3.181,2.223-4.937,3.84c-1.763,1.612-3.56,3.435-5.388,5.474c-1.818,2.028-3.562,4.051-5.221,6.042     c-1.66,1.991-3.191,3.825-4.588,5.505c-1.402,1.681-2.529,2.956-3.366,3.841c-0.338,0.495-0.724,0.658-1.17,0.474     c-0.432-0.189-0.817-0.527-1.128-1.012c-0.326-0.484-0.536-1.011-0.664-1.569c-0.125-0.569-0.077-1.002,0.195-1.292     c1.454-1.722,3.077-3.639,4.836-5.758c1.76-2.122,3.598-4.235,5.479-6.327c1.891-2.096,3.793-4.114,5.73-6.042     c1.919-1.928,3.81-3.599,5.621-5.005c1.828-1.406,3.535-2.442,5.137-3.113c1.592-0.669,3.02-0.816,4.273-0.439     c1.426,0.463,2.622,1.25,3.586,2.36c0.965,1.111,1.708,2.42,2.229,3.93c0.533,1.515,0.858,3.132,0.984,4.849     c0.128,1.717,0.086,3.414-0.126,5.094c1.428-0.168,2.903-0.369,4.436-0.595c1.523-0.232,3.145-0.505,4.853-0.822     c1.697-0.316,3.482-0.717,5.342-1.222c1.871-0.505,3.866-1.138,6.017-1.886c0.668-0.168,1.194-0.158,1.602,0.032     c0.394,0.19,0.658,0.453,0.784,0.812c0.12,0.358,0.105,0.748-0.063,1.169c-0.163,0.421-0.453,0.753-0.875,1.006     c-1.717,0.711-3.56,1.323-5.516,1.823c-1.948,0.505-3.936,0.963-5.931,1.385c-2.023,0.421-4.052,0.816-6.074,1.196     c-2.045,0.374-3.956,0.752-5.769,1.137c-0.374,1.375-0.905,2.824-1.57,4.336c-0.685,1.506-1.459,2.896-2.365,4.151     c-0.905,1.265-1.949,2.302-3.139,3.113c-1.206,0.816-2.529,1.238-3.993,1.238c-1.691,0-3.077-0.553-4.199-1.644     C401.338,266.706,400.78,265.321,400.78,263.651z M404.557,263.393c0,0.548,0.186,1.038,0.56,1.476     c0.379,0.443,0.852,0.664,1.399,0.664c0.755,0,1.507-0.29,2.267-0.875c0.753-0.59,1.438-1.306,2.074-2.144     c0.632-0.838,1.165-1.755,1.628-2.74c0.463-0.985,0.801-1.849,1.013-2.613c-1.092,0.3-2.171,0.622-3.251,0.975     c-1.07,0.359-2.023,0.791-2.855,1.291c-0.849,0.5-1.521,1.08-2.043,1.733C404.82,261.813,404.557,262.55,404.557,263.393z"/>
			<path fill="#EC008C" d="M406.644,272.186c-2.424,0-4.479-0.812-6.126-2.419c-1.628-1.601-2.488-3.724-2.488-6.116     c0-1.669,0.358-3.197,1.07-4.536c0.694-1.28,1.58-2.371,2.672-3.266c0.973-0.801,2.074-1.506,3.259-2.096     c1.102-0.548,2.229-1.022,3.33-1.401c1.022-0.348,2.002-0.658,2.93-0.922c0.198-0.058,0.394-0.111,0.579-0.173     c0.058-0.369,0.126-0.822,0.179-1.349c0.126-1.126,0.138-2.249,0.021-3.445c-0.095-1.001-0.326-1.896-0.701-2.645     c-0.174-0.369-0.343-0.452-0.601-0.516c-0.231,0.011-0.811,0.084-1.901,0.759c-1.374,0.854-2.898,2.039-4.521,3.529     c-1.675,1.528-3.423,3.298-5.198,5.279c-1.792,2.002-3.521,3.999-5.148,5.963l-4.599,5.515c-1.38,1.649-2.507,2.924-3.355,3.83     c-1.006,1.338-2.265,1.539-2.949,1.539c-0.475,0-0.96-0.095-1.423-0.285c-0.97-0.438-1.78-1.138-2.371-2.065     c-0.463-0.685-0.82-1.527-1.022-2.444c-0.453-1.964,0.328-3.192,0.834-3.75c1.395-1.644,3.001-3.566,4.771-5.679     c1.77-2.138,3.636-4.277,5.532-6.395c1.917-2.128,3.877-4.194,5.836-6.153c1.966-1.973,3.94-3.735,5.89-5.231     c2.055-1.581,3.926-2.716,5.759-3.477c2.159-0.914,4.262-1.101,6.126-0.541c1.975,0.638,3.593,1.712,4.879,3.198     c1.186,1.364,2.112,2.992,2.749,4.833c0.607,1.733,0.981,3.603,1.128,5.547c0.048,0.707,0.073,1.423,0.073,2.128     c0.358-0.052,0.728-0.1,1.08-0.158c1.495-0.221,3.087-0.49,4.758-0.801c1.654-0.305,3.372-0.701,5.12-1.179     c1.78-0.475,3.74-1.091,5.821-1.823c1.901-0.5,2.702-0.322,3.687,0.137c1.376,0.664,1.965,1.675,2.229,2.412     c0.326,0.969,0.295,2.023-0.101,3.051c-0.396,1.006-1.101,1.817-2.033,2.38l-0.369,0.185c-1.85,0.758-3.824,1.417-5.879,1.95     c-1.985,0.511-4.014,0.979-6.059,1.412c-2.033,0.426-4.088,0.827-6.131,1.206c-1.428,0.269-2.809,0.532-4.121,0.796     c-0.336,1.012-0.741,2.049-1.206,3.092c-0.769,1.697-1.643,3.261-2.629,4.641c-1.121,1.528-2.401,2.803-3.839,3.783     C410.525,271.616,408.654,272.186,406.644,272.186z"/>
		</g>
		<g>
			<path fill="#EC008C" d="M453.702,256.155c-0.581,0.632-1.275,1.396-2.066,2.297c-0.811,0.906-1.657,1.812-2.586,2.739     c-0.916,0.922-1.897,1.792-2.918,2.613c-1.032,0.822-2.076,1.438-3.118,1.854c-1.059,0.421-2.103,0.59-3.15,0.505     c-1.055-0.084-2.055-0.569-3.019-1.453c-1.382-1.254-2.171-2.813-2.335-4.679c-0.162-1.875,0.116-3.824,0.85-5.858     c0.742-2.033,1.848-4.067,3.345-6.1c1.485-2.038,3.191-3.851,5.12-5.45c1.929-1.591,4.003-2.882,6.2-3.869     c2.207-0.983,4.399-1.459,6.579-1.415c1.454,0.042,2.677,0.321,3.615,0.848c0.953,0.524,1.543,1.333,1.797,2.426     c0.162,0.711,0.046,1.678-0.381,2.892c-0.415,1.218-1.127,2.956-2.138,5.221c-1.218,3.276-1.859,5.878-1.96,7.807     c-0.08,1.928,0.127,3.393,0.605,4.373c0.484,0.991,1.097,1.618,1.854,1.886c0.764,0.28,1.391,0.411,1.891,0.411     c2.014-0.247,3.936-0.932,5.769-2.044c1.823-1.117,3.594-2.486,5.342-4.125c1.744-1.633,3.43-3.45,5.101-5.442     c1.657-1.991,3.328-3.972,5.003-5.941c0.375-0.211,0.685-0.164,0.942,0.147c0.255,0.321,0.438,0.728,0.564,1.233     c0.12,0.506,0.169,1.043,0.12,1.601c-0.036,0.569-0.184,1.001-0.43,1.296c-1.512,1.633-3.067,3.387-4.668,5.257     c-1.592,1.859-3.298,3.614-5.121,5.247c-1.822,1.639-3.808,3.045-5.947,4.225c-2.144,1.17-4.487,1.907-7.049,2.191     c-1.717,0-3.108-0.285-4.16-0.879c-1.049-0.584-1.85-1.359-2.419-2.318c-0.548-0.969-0.933-2.102-1.111-3.403     C453.659,258.947,453.623,257.588,453.702,256.155z M457.537,241.178c-1.476-0.164-3.056,0.116-4.773,0.848     c-1.717,0.734-3.381,1.723-5.004,2.96c-1.613,1.238-3.113,2.655-4.495,4.246c-1.39,1.597-2.518,3.161-3.364,4.689     c-0.859,1.538-1.387,2.96-1.582,4.277c-0.195,1.328,0.106,2.339,0.849,3.056c0.839,0.795,1.859,0.975,3.056,0.537     c1.196-0.443,2.45-1.253,3.771-2.423c1.334-1.175,2.655-2.624,3.963-4.347c1.321-1.717,2.527-3.45,3.586-5.189     c1.07-1.738,1.98-3.403,2.714-4.973C456.999,243.285,457.421,242.06,457.537,241.178z"/>
			<path fill="#EC008C" d="M461.668,269.609h-0.154c-2.202,0-4.057-0.421-5.511-1.244c-1.442-0.801-2.612-1.917-3.438-3.319     c-0.449-0.758-0.796-1.575-1.044-2.434c-0.174,0.169-0.348,0.348-0.521,0.521c-0.938,0.954-2.007,1.892-3.149,2.819     c-1.239,0.979-2.519,1.744-3.813,2.265c-1.435,0.569-2.898,0.801-4.384,0.696c-1.682-0.143-3.251-0.864-4.667-2.17     c-1.902-1.733-2.993-3.909-3.225-6.469c-0.19-2.276,0.147-4.636,1.001-7.033c0.842-2.297,2.096-4.578,3.714-6.801     c1.623-2.213,3.504-4.209,5.595-5.94c2.102-1.738,4.399-3.171,6.826-4.262c2.472-1.101,4.97-1.654,7.423-1.654h0.343     c1.938,0.058,3.588,0.461,4.904,1.201c1.613,0.888,2.702,2.344,3.129,4.205c0.296,1.237,0.143,2.683-0.452,4.417     c-0.453,1.317-1.206,3.15-2.228,5.447c-1.044,2.823-1.64,5.167-1.718,6.806c-0.089,1.966,0.198,2.787,0.326,3.045     c0.205,0.417,0.348,0.516,0.348,0.516c0.416,0.148,0.675,0.2,0.812,0.222c1.532-0.222,3.018-0.774,4.44-1.639     c1.633-0.995,3.282-2.271,4.894-3.777c1.628-1.533,3.266-3.287,4.857-5.194c1.671-2.002,3.34-3.993,5.025-5.974l0.328-0.379     l0.441-0.248c1.527-0.837,3.318-0.495,4.398,0.816c0.533,0.664,0.896,1.433,1.112,2.323c0.2,0.843,0.268,1.67,0.188,2.492     c-0.068,1.117-0.432,2.086-1.068,2.839c-1.57,1.702-3.098,3.43-4.679,5.273c-1.659,1.938-3.471,3.793-5.378,5.51     c-1.939,1.749-4.12,3.287-6.454,4.578c-2.46,1.343-5.168,2.197-8.069,2.523L461.668,269.609z M453.191,244.855     c-1.276,0.605-2.54,1.386-3.763,2.313c-1.464,1.132-2.844,2.439-4.076,3.872c-1.275,1.47-2.308,2.887-3.04,4.219     c-0.705,1.254-1.127,2.371-1.265,3.329c-0.058,0.38-0.026,0.622,0.021,0.674c1.069-0.379,2.044-1.012,3.093-1.959     c1.195-1.059,2.411-2.392,3.607-3.951c1.254-1.623,2.402-3.287,3.43-4.963C451.953,247.168,452.632,245.978,453.191,244.855z"/>
		</g>
	</g>
	<g>
		<path fill="#EC008C" d="M240.757,355.484h0.23l8.521-57.226h17.617v80.599H255.15v-57.801h-0.23l-8.521,57.801h-11.975    l-9.211-56.996h-0.23v56.996h-11.054v-80.599h17.617L240.757,355.484z"/>
		<path fill="#EC008C" d="M289,332.225h17.387v11.516H289v23.604h21.877v11.514h-34.542v-80.599h34.542v11.513H289V332.225z"/>
		<path fill="#EC008C" d="M360.964,298.258l-13.241,39.148l14.163,41.451h-13.357l-10.247-31.895h-0.23l-10.363,31.895h-11.859    l14.163-41.451l-13.242-39.148h13.126l9.441,29.707h0.23l9.672-29.707H360.964z"/>
		<path fill="#EC008C" d="M368.218,298.258h12.666v80.599h-12.666V298.258z"/>
		<path fill="#EC008C" d="M426.823,348.805v10.709c0,12.896-6.447,20.266-18.883,20.266s-18.884-7.369-18.884-20.266v-41.912    c0-12.896,6.448-20.265,18.884-20.265s18.883,7.369,18.883,20.265v7.83h-11.975v-8.635c0-5.758-2.533-7.945-6.563-7.945    c-4.029,0-6.562,2.188-6.562,7.945v43.523c0,5.756,2.533,7.83,6.562,7.83c4.03,0,6.563-2.074,6.563-7.83v-11.516H426.823z"/>
		<path fill="#EC008C" d="M475.528,378.857h-12.781l-2.188-14.623h-15.544l-2.188,14.623h-11.63l12.896-80.599h18.538    L475.528,378.857z M446.627,353.297h12.205l-5.987-40.762h-0.229L446.627,353.297z"/>
		<path fill="#EC008C" d="M492.915,320.48h-0.23v58.377h-11.399v-80.599h15.89l12.781,48.244h0.23v-48.244h11.284v80.599h-13.012    L492.915,320.48z"/>
		<path fill="#EC008C" d="M571.556,378.857h-12.781l-2.188-14.623h-15.544l-2.188,14.623h-11.63l12.896-80.599h18.538    L571.556,378.857z M542.654,353.297h12.205l-5.987-40.762h-0.229L542.654,353.297z"/>
	</g>
	<g>
		<path fill="#00A79D" d="M389.053,550.086c-134.591,0-244.091-109.5-244.091-244.086c0-134.588,109.5-244.085,244.091-244.085    c134.593,0,244.081,109.498,244.081,244.085C633.134,440.586,523.646,550.086,389.053,550.086z M389.053,75.943    c-126.857,0-230.058,103.199-230.058,230.057c0,126.853,103.2,230.053,230.058,230.053c126.848,0,230.058-103.2,230.058-230.053    C619.11,179.143,515.9,75.943,389.053,75.943z"/>
	</g>
</g>
</svg>